<svg version="1.1" xmlns="http://www.w3.org/2000/svg" xmlns:xlink="http://www.w3.org/1999/xlink" x="0px" y="0px"
     viewBox="0 0 512 512">
<g>
    <path d="M266.909,0L17.519,249.87c-23.334,23.374-23.334,61.406,0.002,84.781l159.51,159.745
        c11.325,11.341,26.388,17.593,42.415,17.604c0.015,0,0.028,0,0.043,0c16.011,0,31.067-6.23,42.4-17.547l250.092-249.829V0H266.909
        z" />
    <path d="M471.982,228.043l-238.36,238.108c-3.778,3.772-8.795,5.849-14.132,5.849c-0.005,0-0.01,0-0.015,0
        c-5.343-0.004-10.364-2.088-14.139-5.868L45.827,306.389c-7.778-7.791-7.778-20.468,0.001-28.26L283.501,40h188.481V228.043z" style="fill: white; fill-rule: nonzero;" />
    <circle cx="375.98" cy="136" r="32" />
</g>
</svg>
